<?xml version="1.0" encoding="utf-8"?>
<!-- Generator: Adobe Illustrator 25.0.1, SVG Export Plug-In . SVG Version: 6.00 Build 0)  -->
<svg version="1.1" id="Calque_1" xmlns="http://www.w3.org/2000/svg" xmlns:xlink="http://www.w3.org/1999/xlink" x="0px" y="0px"
	 viewBox="0 0 32 32" style="enable-background:new 0 0 32 32;" xml:space="preserve">
<style type="text/css">
	.st0{fill-rule:evenodd;clip-rule:evenodd;fill:#515151;}
	.st1{fill-rule:evenodd;clip-rule:evenodd;fill:#B3B3B3;}
</style>
<circle class="st0" cx="16" cy="16" r="16"/>
<path class="st1" d="M19.4,18.1l-1.4-0.8c-0.1-0.1-0.2-0.2-0.3-0.4c0-0.2,0-0.3,0.1-0.4l1.1-1.3c0.7-0.8,1.1-1.9,1.1-3v-0.4
	c0-1.3-0.5-2.5-1.4-3.3c-0.9-0.9-2.2-1.3-3.4-1.2C12.9,7.4,11,9.5,11,12v0.3c0,1.1,0.4,2.1,1.1,3l1.1,1.3c0.2,0.2,0.2,0.6-0.1,0.7
	c0,0-0.1,0-0.1,0.1l-2.7,1.6c-1.4,0.8-2.3,2.3-2.3,4v1.3h0.6v-1.3c0-1.4,0.8-2.7,2-3.4l2.7-1.6c0.3-0.2,0.5-0.5,0.6-0.8
	c0.1-0.3,0-0.7-0.3-1l-1.1-1.3c-0.6-0.7-0.9-1.6-0.9-2.6V12c0-2.2,1.6-3.9,3.7-4.1c1.1-0.1,2.2,0.3,3,1.1c0.8,0.7,1.2,1.8,1.2,2.9
	v0.4c0,0.9-0.3,1.8-0.9,2.6l-1.1,1.3c-0.2,0.3-0.3,0.6-0.3,1c0.1,0.3,0.3,0.6,0.6,0.8l1,0.6C18.9,18.3,19.2,18.2,19.4,18.1z
	 M22.4,15.2v4.9c-0.5-0.5-1.1-0.8-1.8-0.8c-1.3,0-2.4,1.1-2.4,2.4c0,1.3,1.1,2.4,2.4,2.4c1.3,0,2.4-1.1,2.4-2.4v-5.4l1.9,1.1
	l0.3-0.6L22.4,15.2z M20.6,23.5c-1,0-1.8-0.8-1.8-1.8c0-1,0.8-1.8,1.8-1.8c1,0,1.8,0.8,1.8,1.8S21.6,23.5,20.6,23.5z"/>
</svg>
